<svg version="1.1" xmlns="http://www.w3.org/2000/svg" xmlns:xlink="http://www.w3.org/1999/xlink" width="1069.89004" height="1034.11522" viewBox="0,0,1069.89004,1034.11522"><g transform="translate(294.94502,337.05761)"><g data-paper-data="{&quot;isPaintingLayer&quot;:true}" fill-rule="nonzero" stroke-linecap="round" stroke-linejoin="round" stroke-miterlimit="10" stroke-dasharray="" stroke-dashoffset="0" style="mix-blend-mode: normal"><g fill="#66fff4" stroke="#66fff4" stroke-width="20"><path d="M-131.19235,-191.19202c32.43895,-32.43895 68.9902,-60.48573 108.71966,-83.42352l262.47251,454.61568z" opacity="0.99824"/><path d="M764.94502,179.9996c0,45.87563 -6.01358,91.55332 -17.88709,135.86578l-507.05793,-135.86578z" opacity="0.99824"/><path d="M611.19228,551.19158c-32.43897,32.43895 -68.99026,60.48573 -108.71971,83.42352l-262.47251,-454.61575z" opacity="0.99824"/><path d="M502.47257,634.61532c-39.72945,22.9378 -82.29429,40.56871 -126.60673,52.44219l-135.86578,-507.05791z" opacity="0.99824"/><path d="M104.13468,687.05762c-44.31244,-11.87349 -86.87728,-29.50441 -126.60672,-52.44221l262.47249,-454.61572z" opacity="0.99824"/><path d="M-22.47246,634.61557c-39.72945,-22.9378 -76.28071,-50.98455 -108.71966,-83.42349l371.19215,-371.19219z" opacity="0.99824"/><path d="M-267.05787,315.86589c-11.87347,-44.31244 -17.88704,-89.99013 -17.88704,-135.86575h524.94496z" opacity="0.99824"/><path d="M-284.94502,179.99978c0,-45.87561 6.0136,-91.5533 17.88709,-135.86575l507.05791,135.86575z" opacity="0.99824"/><path d="M-22.47253,-274.61519c39.72945,-22.93781 82.2943,-40.56874 126.60676,-52.44221l135.86573,507.05791z" opacity="0.99824"/><path d="M375.86529,-327.0576c44.31246,11.87349 86.8773,29.50443 126.60676,52.44224l-262.47254,454.61568z" opacity="0.99824"/><path d="M502.47235,-274.6151c39.72945,22.93781 76.28072,50.98459 108.71967,83.42355l-371.19219,371.19212z" opacity="0.99824"/><path d="M747.05777,44.13446c11.87349,44.31244 17.88707,89.99016 17.88709,135.86578l-524.94499,-0.00003z" opacity="0.99824"/></g><path d="M-241.44664,47.69063c11.5627,-42.07424 28.59079,-82.45127 50.64913,-120.09922l430.79755,252.40878z" fill="#ffff56" stroke="none" stroke-width="0" opacity="0.99824"/><path d="M677.27753,-68.4598c21.57492,37.92706 38.08511,78.51862 49.10862,120.73735l-483.09986,126.13989c0,0 138.88909,-131.09236 212.95652,-173.22585c70.41114,-40.05359 221.03472,-73.65139 221.03472,-73.65139z" fill="#ffff56" stroke="none" stroke-width="0" opacity="0.99824"/><path d="M721.44665,312.30902c-11.56272,42.07425 -28.59084,82.4513 -50.64918,120.09924c0,0 -181.50913,-69.73675 -260.51862,-116.02924c-57.97128,-33.96599 -170.27897,-136.3796 -170.27897,-136.3796z" fill="#ffff56" stroke="none" stroke-width="0" opacity="0.99824"/><path d="M670.79758,432.40844c-22.05833,37.64794 -48.95657,72.24195 -80.00729,102.89796l-350.79028,-355.30677z" fill="#ffff56" stroke="none" stroke-width="0" opacity="0.99824"/><path d="M366.14026,663.09939c-42.21872,11.02352 -85.7003,16.46528 -129.33353,16.18619l3.19364,-499.28605z" fill="#ffff56" stroke="none" stroke-width="0" opacity="0.99824"/><path d="M236.80646,679.28591c-43.63324,-0.27909 -87.04165,-6.27661 -129.11588,-17.83931l132.30955,-481.4467c0,0 18.96172,87.20392 20.08306,148.1387c1.69584,92.15399 -23.27673,351.14731 -23.27673,351.14731z" fill="#ffff56" stroke="none" stroke-width="0" opacity="0.99824"/><path d="M-115.30654,530.79035c-30.656,-31.05072 -57.10947,-65.986 -78.68439,-103.91306l433.99118,-246.87721z" fill="#ffff56" stroke="none" stroke-width="0" opacity="0.99824"/><path d="M-193.9912,426.87705c-21.57491,-37.92704 -38.08508,-78.51861 -49.10861,-120.73733l483.09983,-126.1399c0,0 -171.58738,121.5533 -234.57633,181.90104c-54.47035,52.18634 -199.41489,64.97619 -199.41489,64.97619z" fill="#ffff56" stroke="none" stroke-width="0" opacity="0.99824"/><path d="M-193.8002,-72.40837c22.05833,-37.64795 48.95657,-72.24198 80.00731,-102.89799l350.79025,355.30679c0,0 -167.46526,-60.8401 -243.69105,-105.50159c-65.84968,-38.58202 -187.10651,-146.90721 -187.10651,-146.90721z" fill="#ffff56" stroke="none" stroke-width="0" opacity="0.99824"/><path d="M113.86,-303.09937c42.21873,-11.02353 85.70033,-16.46527 129.33358,-16.18618c0,0 24.08922,224.54505 23.5068,315.59623c-0.44433,69.46439 -26.7005,183.6898 -26.7005,183.6898z" fill="#ffff56" stroke="none" stroke-width="0" opacity="0.99824"/><path d="M243.19396,-319.28547c43.63324,0.2791 87.04168,6.27664 129.11592,17.83935l-132.30961,481.44667z" fill="#ffff56" stroke="none" stroke-width="0" opacity="0.99824"/><path d="M595.30691,-170.79004c30.65602,31.05071 57.10951,65.98601 78.68445,103.91305l-433.99122,246.8772z" fill="#ffff56" stroke="none" stroke-width="0" opacity="0.99824"/></g></g></svg>