<svg version="1.1" xmlns="http://www.w3.org/2000/svg" xmlns:xlink="http://www.w3.org/1999/xlink" width="85.88245" height="85.88264" viewBox="0,0,85.88245,85.88264"><g transform="translate(-197.05878,-137.05872)"><g data-paper-data="{&quot;isPaintingLayer&quot;:true}" fill="#ffffff" fill-rule="nonzero" stroke="none" stroke-width="0" stroke-linecap="round" stroke-linejoin="round" stroke-miterlimit="10" stroke-dasharray="" stroke-dashoffset="0" style="mix-blend-mode: normal"><path d="M245.73656,142.79527h-11.4731l5.73655,-5.73655zM239.12853,146.80954l-3.47616,3.47616h-8.87936l3.47616,-3.47616zM249.75084,146.80954l3.47616,3.47616h-8.87936l-3.47616,-3.47616zM231.63808,154.29998l-3.47616,3.47616h-8.87936l3.47616,-3.47616zM257.24129,154.29998l3.47616,3.47616h-8.87936l-3.47616,-3.47616zM224.14763,161.79044l-3.47596,3.47616h-8.87936l3.47616,-3.47616zM264.73174,161.79044l3.47616,3.47616h-8.87936l-3.47616,-3.47616zM216.65738,169.28088l-3.47616,3.47616h-8.87936l3.47616,-3.47616zM272.22219,169.28088l3.47616,3.47616h-8.87936l-3.47616,-3.47616zM209.16693,176.77135l-3.22879,3.22878l0.24737,0.24737h-8.87936l-0.24737,-0.24737l3.22879,-3.22878zM279.71264,176.77135l3.22859,3.22858l-0.24757,0.24757h-8.87936l0.24757,-0.24757l-3.22859,-3.22858zM210.19981,184.26179l3.47616,3.47616h-8.87936l-3.47616,-3.47616zM278.67937,184.26179l-3.47616,3.47616h-8.87936l3.47616,-3.47616zM217.69006,191.75203l3.47636,3.47636h-8.87936l-3.47636,-3.47636zM271.18912,191.75203l-3.47636,3.47636h-8.87936l3.47635,-3.47636zM225.18051,199.2425l3.47636,3.47636h-8.87936l-3.47636,-3.47636zM263.69867,199.2425l-3.47616,3.47636h-8.87936l3.47636,-3.47636zM232.67096,206.73295l3.47616,3.47616h-8.87936l-3.47616,-3.47616zM256.20842,206.73295l-3.47616,3.47616h-8.87936l3.47616,-3.47616zM248.71797,214.22338l-3.47616,3.47616h-10.4836l-3.47616,-3.47616zM241.22752,221.71385l-1.22751,1.22751l-1.22751,-1.22751z" opacity="0.99824"/></g></g></svg>